<?xml version="1.0" encoding="utf-8"?>
<!-- Generator: Adobe Illustrator 27.5.0, SVG Export Plug-In . SVG Version: 6.00 Build 0)  -->
<svg version="1.1" id="Capa_1" xmlns="http://www.w3.org/2000/svg" xmlns:xlink="http://www.w3.org/1999/xlink" x="0px" y="0px"
	 viewBox="0 0 1909 2359" style="enable-background:new 0 0 1909 2359;" xml:space="preserve">
<path style="fill:#F5B13D;" d="M534.706,1795.221l0.346,0.462c6.979,14.288,118.669,240.466,255.47,364.585l0.074,0.067
	c0.551,0.5,1.104,0.999,1.656,1.496l0.398,0.357l1.437,1.287l0.342,0.303l1.391,1.234l0.541,0.477l1.232,1.082l0.539,0.471
	l1.341,1.167l0.455,0.394l1.358,1.17l0.46,0.396c0.594,0.51,1.19,1.018,1.785,1.523l0.085,0.072
	c1.126,0.954,2.253,1.902,3.382,2.842c1.129,0.94,2.259,1.873,3.391,2.797l0.234,0.191c0.674,0.55,1.349,1.097,2.024,1.642
	l0.245,0.198c1.48,1.192,2.962,2.371,4.447,3.535l0.311,0.243c0.62,0.486,1.242,0.97,1.863,1.451l0.461,0.356
	c0.627,0.485,1.255,0.966,1.883,1.446l0.301,0.231c0.733,0.558,1.466,1.113,2.2,1.664l0.261,0.195
	c0.63,0.472,1.26,0.942,1.891,1.409l0.552,0.408c0.563,0.416,1.126,0.829,1.69,1.24l0.506,0.371
	c0.722,0.525,1.445,1.048,2.168,1.567l0.049,0.035c0.692,0.496,1.384,0.989,2.077,1.479l0.03,0.021
	c0.697,0.492,1.394,0.982,2.091,1.468l0.022,0.015c2.112,1.47,4.227,2.909,6.345,4.318c1.588,1.056,3.179,2.094,4.772,3.115
	c0.531,0.34,1.063,0.678,1.593,1.014l0.02,0.013c0.625,0.395,1.25,0.786,1.875,1.176l0.375,0.234
	c0.589,0.365,1.176,0.727,1.765,1.087l0.434,0.266c0.573,0.349,1.146,0.696,1.72,1.041l0.492,0.295
	c0.573,0.342,1.146,0.683,1.72,1.021l0.432,0.254c0.59,0.346,1.18,0.692,1.771,1.032l0.374,0.215
	c0.612,0.352,1.223,0.703,1.835,1.05l0.154,0.086c2.649,1.498,5.302,2.941,7.959,4.331l0.602,0.315
	c0.502,0.261,1.004,0.519,1.507,0.775l0.743,0.38l1.419,0.714l0.873,0.435l1.344,0.66l0.914,0.443l1.342,0.643l0.893,0.423
	l1.365,0.638l0.889,0.408l1.368,0.623l0.833,0.372l1.436,0.637l0.491,0.212c1.185,0.515,2.37,1.019,3.555,1.51l0.317,0.133
	l1.322,0.538l0.986,0.399l1.19,0.47l1.081,0.423l1.254,0.479l0.997,0.376l1.244,0.46l1.068,0.388l1.201,0.428l1.071,0.374
	l1.213,0.417l1.098,0.368l1.153,0.382l1.184,0.38l1.112,0.353l1.257,0.385l1.015,0.31c0.734,0.219,1.469,0.433,2.203,0.643
	l0.979,0.273l1.328,0.368l1.038,0.275l1.232,0.323l1.103,0.278l1.193,0.295l1.097,0.262l1.217,0.282l1.059,0.238l1.229,0.267
	l1.084,0.229l1.224,0.247l1.057,0.208l1.264,0.236l1.039,0.19l1.35,0.231l0.928,0.157c0.744,0.122,1.489,0.237,2.234,0.347
	l0.778,0.109c0.505,0.072,1.01,0.145,1.515,0.212l1.013,0.128l1.254,0.155l1.111,0.125l1.177,0.126l1.107,0.108l1.201,0.11
	l1.063,0.088l1.269,0.095l1.009,0.069l1.293,0.076l1.018,0.054l1.283,0.054l1.012,0.038l1.345,0.034l0.939,0.021
	c0.616,0.01,1.231,0.014,1.846,0.016l0.415,0.003l0.441-0.004c0.643-0.001,1.285-0.005,1.927-0.015l0.994-0.022l1.396-0.034
	l1.07-0.039l1.332-0.053l1.073-0.055l1.341-0.075l1.067-0.069l1.311-0.095l1.124-0.089l1.238-0.108l1.174-0.11l1.202-0.124
	l1.185-0.127l1.266-0.15l1.097-0.133c0.511-0.065,1.023-0.136,1.534-0.205l0.851-0.115c0.773-0.11,1.544-0.225,2.315-0.345
	l1.03-0.167l1.346-0.221l1.101-0.194l1.289-0.231l1.14-0.216l1.219-0.237l1.172-0.238l1.232-0.258l1.135-0.246l1.229-0.275
	l1.171-0.269l1.182-0.282l1.206-0.293l1.188-0.301l1.156-0.296l1.273-0.341l1.115-0.299c0.741-0.204,1.482-0.413,2.222-0.627
	l1.243-0.365l1.135-0.336l1.243-0.383l1.13-0.351l1.25-0.4l1.079-0.349l1.301-0.433l1.042-0.352l1.302-0.45l1.042-0.367l1.326-0.475
	l0.998-0.365l1.314-0.487l1.073-0.407l1.279-0.489l0.919-0.362c1.847-0.726,3.692-1.479,5.535-2.258l0.39-0.164
	c0.526-0.223,1.052-0.452,1.578-0.68l0.736-0.319c0.507-0.222,1.014-0.448,1.521-0.674l0.79-0.353
	c0.499-0.225,0.998-0.453,1.497-0.681l0.818-0.376l1.46-0.682l0.863-0.407l1.438-0.689l0.828-0.402
	c0.507-0.247,1.014-0.495,1.522-0.746l0.662-0.331c0.551-0.275,1.103-0.551,1.654-0.83l0.432-0.221
	c1.409-0.718,2.816-1.45,4.22-2.197c1.405-0.747,2.809-1.509,4.211-2.284l0.002-0.002c0.658-0.364,1.314-0.732,1.972-1.103
	l0.286-0.16c0.629-0.355,1.257-0.715,1.885-1.076l0.358-0.206c0.606-0.349,1.212-0.702,1.817-1.057l0.445-0.261
	c0.612-0.36,1.224-0.722,1.835-1.088l0.32-0.191c0.639-0.384,1.279-0.769,1.918-1.158l0.236-0.144
	c0.811-0.495,1.621-0.996,2.431-1.5l0.665-0.415c0.669-0.419,1.338-0.84,2.006-1.265l0.446-0.283
	c0.831-0.53,1.661-1.065,2.491-1.605l0.322-0.211c0.717-0.468,1.433-0.938,2.149-1.412l0.562-0.374
	c1.654-1.1,3.305-2.219,4.953-3.356l0.429-0.297c0.777-0.538,1.555-1.08,2.331-1.626l0.144-0.101
	c0.876-0.616,1.75-1.237,2.624-1.864l0.038-0.027c0.831-0.596,1.66-1.197,2.49-1.801l0.28-0.205
	c1.723-1.258,3.442-2.535,5.157-3.831l0.098-0.075c2.628-1.986,5.246-4.014,7.855-6.084l0.049-0.038
	c0.653-0.519,1.307-1.04,1.959-1.564l0.437-0.352c0.501-0.403,1.002-0.808,1.502-1.214l0.558-0.454l1.407-1.151l0.55-0.452
	c0.509-0.419,1.017-0.84,1.524-1.261l0.397-0.329c0.588-0.49,1.177-0.982,1.765-1.476l0.183-0.154
	c1.33-1.12,2.657-2.249,3.982-3.388l0.201-0.174c0.58-0.5,1.16-1.001,1.739-1.505l0.322-0.28c0.585-0.509,1.168-1.02,1.752-1.533
	l0.159-0.139c140.226-123.308,249.484-354.958,255.955-368.838l0.305-0.407v-0.25l0.001-0.001v-184.302h-0.001V588.956l0,0V469.939
	c0-175.394-187.802-352.211-419.467-352.211c-231.665,0-419.467,176.817-419.467,352.211v1140.73h-0.001v184.302l0.001,0.002
	V1795.221z"/>
<path style="fill:#E84A1C;" d="M954.173,117.727c-231.665,0-419.467,176.817-419.467,352.211h648.452
	c5.583-16.633,12.023-32.967,19.287-48.925c-17.348,4.529-33.784,8.904-49.559,15.104c-0.667,0.263-1.352,0.388-2.026,0.388
	c-2.215,0-4.305-1.335-5.164-3.521c-1.121-2.852,0.282-6.068,3.133-7.19c17.035-6.695,35.293-11.466,52.958-16.075
	c-11.33-10.27-22.726-21.203-35.029-33.306c-2.185-2.147-2.212-5.66-0.065-7.842c2.153-2.185,5.659-2.207,7.842-0.065
	c10.99,10.812,21.243,20.675,31.371,29.958c-3.088-16.057-6.909-32.157-11.925-48.797c-0.883-2.933,0.777-6.025,3.71-6.911
	c2.93-0.872,6.025,0.777,6.911,3.71c4.807,15.948,8.533,31.363,11.571,46.678c5.771-10.869,11.935-21.532,18.484-31.961
	c1.63-2.596,5.058-3.377,7.644-1.746c2.594,1.627,3.377,5.05,1.747,7.644c-7.548,12.022-14.577,24.361-21.066,36.974
	c13.264-3.715,26.524-7.906,39.217-13.328c2.816-1.208,6.076,0.105,7.279,2.919c1.205,2.816-0.103,6.077-2.919,7.279
	c-13.687,5.849-27.819,10.269-41.879,14.173c14.618,12.477,29.749,24.235,47.19,36.365c2.516,1.747,3.136,5.205,1.386,7.717
	c-1.078,1.549-2.803,2.38-4.558,2.38c-1.091,0-2.196-0.322-3.16-0.994c-16.004-11.128-30.08-21.935-43.571-33.234
	c2.011,13.915,3.696,28.01,5.34,42.605h146.332C1373.64,294.544,1185.838,117.727,954.173,117.727z"/>
<path style="fill:#FBE0C4;" d="M1373.335,1795.628c-48.444,64.839-118.957,109.115-194.655,39.725
	c-13.395-11.721-27.16-25.253-41.525-39.019c-10.928,3.558-21.931,6.732-32.891,9.721c22.733,19.609,46.145,37.929,73.373,56.862
	c2.516,1.75,3.136,5.205,1.386,7.723c-1.075,1.549-2.803,2.377-4.557,2.377c-1.091,0-2.196-0.319-3.16-0.991
	c-25.564-17.775-47.783-34.997-69.196-53.206c4.566,30.351,7.966,61.185,11.588,94.036l0.869,7.88
	c0.336,3.044-1.861,5.784-4.904,6.12l-0.617,0.033c-2.789,0-5.191-2.101-5.505-4.939l-0.869-7.88
	c-3.681-33.392-7.131-64.684-11.817-95.469c-12.403,26.921-23.188,54.591-32.26,82.839c-0.755,2.351-2.935,3.851-5.28,3.851
	c-0.561,0-1.132-0.087-1.695-0.266c-2.917-0.937-4.522-4.062-3.585-6.975c9.425-29.343,20.665-58.072,33.628-86
	c-0.653,0.17-1.304,0.341-1.955,0.511c-26.854,7.008-52.222,13.626-76.602,23.206c-0.667,0.26-1.352,0.385-2.026,0.385
	c-2.215,0-4.305-1.333-5.164-3.515c-1.121-2.855,0.282-6.071,3.133-7.193c24.997-9.824,51.87-16.838,77.858-23.618
	c1.482-0.387,2.967-0.774,4.453-1.162c-17.832-16.027-35.677-33.111-55.056-52.178c-2.186-2.15-2.213-5.66-0.065-7.842
	c2.153-2.183,5.662-2.21,7.842-0.065c18.284,17.987,35.187,34.192,52,49.401c-2.797-15.304-6.017-30.605-9.843-46.101
	c-12.819-9.045-26.341-16.999-40.823-23.132c-27.029-11.447-55.247-12.848-84.221-12.863c-29.02-0.016-58.579,3.379-85.079,15.927
	c-16.325,7.73-31.45,17.802-45.695,28.857c-7.26,5.634-14.295,11.552-21.188,17.628c-2.162,1.906-11.293,10.309-16.166,14.8
	c-18.709,17.523-36.363,35.353-53.399,50.259c-75.677,69.37-146.171,25.139-194.614-39.67
	c5.19,10.625,68.287,138.42,156.551,254.288c34.171,44.858,72.113,87.93,111.928,121.721l0.085,0.072
	c2.252,1.91,4.509,3.79,6.773,5.64l0.234,0.191c0.674,0.55,1.349,1.097,2.024,1.642l0.245,0.198c1.48,1.192,2.963,2.371,4.447,3.535
	l0.311,0.243c0.62,0.486,1.242,0.97,1.863,1.451l0.461,0.356c0.627,0.485,1.255,0.966,1.883,1.446l0.301,0.231
	c0.733,0.558,1.466,1.113,2.2,1.664l0.261,0.195c0.63,0.472,1.26,0.942,1.891,1.409l0.552,0.408c0.563,0.416,1.126,0.829,1.69,1.24
	l0.506,0.371c0.722,0.525,1.445,1.048,2.168,1.567l0.049,0.035c0.692,0.496,1.384,0.989,2.077,1.479l0.03,0.021
	c0.697,0.492,1.394,0.982,2.091,1.468l0.022,0.015c2.112,1.47,4.227,2.909,6.345,4.318c1.588,1.056,3.179,2.094,4.772,3.115
	c0.531,0.34,1.063,0.678,1.593,1.014l0.02,0.013c0.625,0.395,1.25,0.786,1.875,1.176l0.375,0.234
	c0.589,0.365,1.176,0.727,1.765,1.087l0.434,0.266c0.573,0.349,1.146,0.696,1.72,1.041l0.492,0.295
	c0.573,0.342,1.146,0.683,1.72,1.021l0.432,0.254c0.59,0.346,1.18,0.692,1.771,1.032l0.374,0.215
	c0.612,0.352,1.223,0.703,1.835,1.05l0.154,0.086c2.649,1.498,5.302,2.941,7.959,4.331l0.602,0.315
	c0.502,0.261,1.004,0.519,1.507,0.775l0.743,0.38l1.419,0.714l0.873,0.435l1.344,0.66l0.914,0.443l1.342,0.643l0.893,0.423
	l1.365,0.638l0.889,0.408l1.368,0.623l0.833,0.372l1.436,0.637l0.491,0.212c1.185,0.515,2.37,1.019,3.555,1.51l0.317,0.133
	l1.322,0.538l0.986,0.399l1.19,0.47l1.081,0.423l1.254,0.479l0.997,0.376l1.244,0.46l1.068,0.388l1.201,0.428l1.071,0.374
	l1.213,0.417l1.098,0.368l1.153,0.382l1.184,0.38l1.112,0.353l1.257,0.385l1.015,0.31c0.734,0.219,1.469,0.433,2.203,0.643
	l0.979,0.273l1.328,0.368l1.038,0.275l1.232,0.323l1.103,0.278l1.193,0.295l1.097,0.262l1.217,0.282l1.059,0.238l1.229,0.267
	l1.084,0.229l1.224,0.247l1.057,0.208l1.264,0.236l1.039,0.19l1.35,0.231l0.928,0.157c0.744,0.122,1.489,0.237,2.234,0.347
	l0.778,0.109c0.505,0.072,1.01,0.145,1.515,0.212l1.013,0.128l1.254,0.155l1.111,0.125l1.177,0.126l1.107,0.108l1.201,0.11
	l1.063,0.088l1.269,0.095l1.009,0.069l1.293,0.076l1.018,0.054l1.283,0.054l1.012,0.038l1.345,0.034l0.939,0.021
	c0.616,0.01,1.231,0.014,1.846,0.016l0.414,0.003l0.441-0.003c0.643-0.001,1.285-0.005,1.927-0.015l0.994-0.022l1.396-0.034
	l1.07-0.039l1.332-0.053l1.073-0.055l1.341-0.075l1.067-0.069l1.311-0.095l1.124-0.089l1.238-0.108l1.174-0.11l1.202-0.124
	l1.185-0.127l1.266-0.15l1.097-0.133c0.511-0.065,1.023-0.136,1.534-0.205l0.851-0.115c0.773-0.11,1.544-0.225,2.315-0.345
	l1.03-0.167l1.346-0.221l1.101-0.194l1.289-0.231l1.14-0.216l1.219-0.237l1.172-0.238l1.232-0.258l1.135-0.246l1.229-0.275
	l1.171-0.269l1.182-0.282l1.206-0.293l1.188-0.301l1.156-0.296l1.273-0.341l1.115-0.299c0.741-0.204,1.482-0.413,2.222-0.627
	l1.243-0.365l1.135-0.336l1.243-0.383l1.13-0.351l1.25-0.4l1.079-0.349l1.301-0.433l1.042-0.352l1.302-0.45l1.042-0.367l1.326-0.475
	l0.998-0.365l1.314-0.487l1.073-0.407l1.279-0.489l0.919-0.362c1.847-0.726,3.692-1.479,5.535-2.258l0.39-0.164
	c0.526-0.223,1.052-0.452,1.578-0.68l0.736-0.319c0.507-0.222,1.014-0.448,1.521-0.674l0.79-0.353
	c0.499-0.225,0.998-0.453,1.497-0.681l0.818-0.376l1.46-0.682l0.863-0.407l1.438-0.689l0.828-0.402
	c0.507-0.247,1.014-0.495,1.522-0.746l0.662-0.331c0.551-0.275,1.103-0.551,1.654-0.83l0.432-0.221
	c1.409-0.718,2.816-1.451,4.22-2.197c1.405-0.747,2.809-1.509,4.211-2.284l0.002-0.002c0.658-0.364,1.314-0.732,1.972-1.103
	l0.286-0.16c0.629-0.355,1.257-0.715,1.885-1.076l0.358-0.206c0.606-0.349,1.212-0.702,1.817-1.057l0.445-0.261
	c0.612-0.36,1.224-0.722,1.835-1.088l0.32-0.191c0.639-0.384,1.279-0.769,1.918-1.158l0.236-0.144
	c0.811-0.495,1.621-0.996,2.431-1.5l0.665-0.415c0.669-0.419,1.338-0.84,2.006-1.265l0.446-0.283
	c0.831-0.53,1.661-1.065,2.491-1.605l0.322-0.211c0.717-0.468,1.433-0.938,2.149-1.412l0.562-0.374
	c1.654-1.1,3.305-2.219,4.953-3.356l0.429-0.297c0.777-0.538,1.555-1.08,2.331-1.626l0.144-0.101
	c0.876-0.616,1.75-1.237,2.624-1.864l0.038-0.027c0.831-0.596,1.66-1.197,2.49-1.801l0.28-0.205
	c1.723-1.259,3.442-2.535,5.157-3.831l0.098-0.075c2.628-1.986,5.246-4.014,7.855-6.084l0.049-0.038
	c43.947-34.871,85.256-81.348,121.833-129.922v0l-0.031-0.008C1308.161,1933.881,1368.574,1805.838,1373.335,1795.628z"/>
<path style="fill:#F3A40F;" d="M779.969,765.74c3.818-6.509,7.732-12.963,11.747-19.357c1.633-2.596,5.053-3.377,7.645-1.746
	c2.594,1.628,3.377,5.05,1.746,7.644c-7.385,11.762-14.432,23.731-21.138,35.885v20.683c17.328-5.02,34.587-10.695,51.223-17.803
	c2.819-1.205,6.076,0.103,7.279,2.919c1.205,2.816-0.103,6.077-2.919,7.279c-18.153,7.759-36.875,13.813-55.583,19.148v12.104
	c19.514,16.321,39.867,31.936,62.959,47.996c2.516,1.746,3.136,5.205,1.386,7.718c-1.078,1.552-2.802,2.38-4.557,2.38
	c-1.091,0-2.196-0.322-3.161-0.994c-20.603-14.328-39.04-28.295-56.628-42.698v329.044c28.926,7.756,49.909,35.494,56.111,61.828
	l0.271,1.425c0.577,3.975,0.859,7.555,0.859,10.94c0,8.963-1.633,17.612-4.85,25.714c-3.393,8.541-13.066,12.717-21.604,9.321
	c-8.541-3.39-12.714-13.063-9.321-21.604c1.657-4.175,2.499-8.693,2.499-13.431c0-1.608-0.13-3.347-0.409-5.427
	c-3.193-12.666-12.25-25.821-23.557-32.717v575.962c0,0,1.24-1.144,3.096-2.855c4.873-4.491,14.004-12.894,16.166-14.8
	c6.893-6.076,13.928-11.994,21.188-17.628c14.244-11.055,29.37-21.127,45.695-28.857c26.5-12.547,56.059-15.943,85.079-15.927
	c28.974,0.016,57.192,1.416,84.221,12.863c14.482,6.134,28.005,14.087,40.823,23.132c-2.737-11.087-5.783-22.274-9.207-33.634
	c-0.883-2.935,0.777-6.028,3.71-6.911c2.927-0.893,6.025,0.769,6.911,3.705c4.833,16.036,8.922,31.709,12.453,47.225
	c4.981,3.938,9.863,8.009,14.662,12.169c6.916-12.57,14.191-24.946,21.826-37.103c0.468-0.743,1.085-1.337,1.787-1.768v-515.62
	c-14.291,8.479-23.965,26.641-23.965,42.869c0,3.477,0.474,6.38,1.492,9.147c3.173,8.627-1.246,18.186-9.87,21.36
	c-1.893,0.699-3.834,1.029-5.741,1.029c-6.775,0-13.141-4.171-15.616-10.896c-2.383-6.472-3.539-13.226-3.539-20.64
	c0-36.819,25.26-69.777,57.24-78.653V588.956H779.969C779.969,588.956,779.969,659.224,779.969,765.74z"/>
<path style="fill:#DC2515;" d="M1050.06,1305.747c-10.416-19.419-32.718-26.733-52.888-18.338
	c-8.414,3.501-15.556,9.472-23.66,13.639c-5.913,3.042-12.717,5.871-19.31,5.871v-0.001l-0.028,0l-0.028,0v0.001
	c-6.584,0-13.395-2.828-19.31-5.871c-8.104-4.167-15.247-10.138-23.66-13.639c-20.171-8.394-42.473-1.081-52.889,18.338
	c-13.838,25.799,0.445,54.178,19.322,73.19l-0.012,0.014c1.293,1.303,2.607,2.566,3.937,3.777
	c20.609,18.774,46.239,29.763,72.64,29.763c26.714,0,52.031-10.989,72.64-29.763c1.262-1.15,2.51-2.346,3.74-3.579l0.083-0.107
	C1049.563,1360.03,1063.924,1331.592,1050.06,1305.747z"/>
<path style="fill:#FBE0C4;" d="M1120.843,1780.892c-2.501-2.319-5.022-4.629-7.563-6.923c-3.816,6.993-7.521,14.045-11.108,21.157
	c8.611-2.356,17.24-4.83,25.816-7.515c-2.364-2.229-4.745-4.456-7.144-6.673V1780.892z"/>
<path style="fill:#FBE0C4;" d="M1104.765,1766.433c-4.799-4.159-9.681-8.231-14.662-12.169c2.173,9.551,4.135,19.043,5.927,28.522
	C1098.873,1777.299,1101.785,1771.848,1104.765,1766.433z"/>
<path style="fill:#49221C;" d="M1220.774,2049.971L1220.774,2049.971c-173.592-44.434-355.579-44.434-529.171,0v0
	c34.171,44.858,72.113,87.93,111.928,121.721l0.085,0.072c2.252,1.91,4.509,3.79,6.773,5.64l0.234,0.191
	c0.674,0.55,1.349,1.097,2.024,1.642l0.245,0.198c1.48,1.192,2.963,2.371,4.447,3.535l0.311,0.243
	c0.62,0.486,1.242,0.97,1.863,1.451l0.461,0.356c0.627,0.485,1.255,0.966,1.883,1.446l0.301,0.231
	c0.733,0.558,1.466,1.113,2.2,1.664l0.261,0.195c0.63,0.472,1.26,0.942,1.891,1.409l0.552,0.408c0.563,0.416,1.126,0.829,1.69,1.24
	l0.506,0.371c0.722,0.525,1.445,1.048,2.168,1.567l0.049,0.035c0.692,0.496,1.384,0.989,2.077,1.479l0.03,0.021
	c0.697,0.492,1.394,0.982,2.091,1.468l0.022,0.015c2.112,1.47,4.227,2.909,6.345,4.318c1.588,1.056,3.179,2.094,4.772,3.115
	c0.531,0.34,1.063,0.678,1.593,1.014l0.02,0.013c0.625,0.395,1.25,0.786,1.875,1.176l0.375,0.234
	c0.589,0.365,1.176,0.727,1.765,1.087l0.434,0.266c0.573,0.349,1.146,0.696,1.72,1.041l0.492,0.295
	c0.573,0.342,1.146,0.683,1.72,1.021l0.432,0.254c0.59,0.346,1.18,0.692,1.771,1.032l0.374,0.215
	c0.612,0.352,1.223,0.703,1.835,1.05l0.154,0.086c2.649,1.498,5.302,2.941,7.959,4.331l0.602,0.315
	c0.502,0.261,1.004,0.519,1.507,0.775l0.743,0.38l1.419,0.714l0.873,0.435l1.344,0.66l0.914,0.443l1.342,0.643l0.893,0.423
	l1.365,0.638l0.889,0.408l1.368,0.623l0.833,0.372l1.436,0.637l0.491,0.212c1.185,0.515,2.37,1.019,3.555,1.51l0.317,0.133
	l1.322,0.538l0.986,0.399l1.19,0.47l1.081,0.423l1.254,0.479l0.997,0.376l1.244,0.46l1.068,0.388l1.201,0.428l1.071,0.374
	l1.213,0.417l1.098,0.368l1.153,0.382l1.184,0.38l1.112,0.353l1.257,0.385l1.015,0.31c0.734,0.219,1.469,0.433,2.203,0.643
	l0.979,0.273l1.328,0.368l1.038,0.275l1.232,0.323l1.103,0.278l1.193,0.295l1.097,0.262l1.217,0.282l1.059,0.238l1.229,0.267
	l1.084,0.229l1.224,0.247l1.057,0.208l1.264,0.236l1.039,0.19l1.35,0.231l0.928,0.157c0.744,0.122,1.489,0.237,2.234,0.347
	l0.778,0.109c0.505,0.072,1.01,0.145,1.515,0.212l1.013,0.128l1.254,0.155l1.111,0.125l1.177,0.126l1.107,0.108l1.201,0.11
	l1.063,0.088l1.269,0.095l1.009,0.069l1.293,0.076l1.018,0.054l1.283,0.054l1.012,0.038l1.345,0.034l0.939,0.021
	c0.616,0.01,1.231,0.014,1.846,0.016l0.414,0.003l0.441-0.003c0.643-0.001,1.285-0.005,1.927-0.015l0.994-0.022l1.396-0.034
	l1.07-0.039l1.332-0.053l1.073-0.055l1.341-0.075l1.067-0.069l1.311-0.095l1.124-0.089l1.238-0.108l1.174-0.11l1.202-0.124
	l1.185-0.127l1.266-0.15l1.097-0.133c0.511-0.065,1.023-0.136,1.534-0.205l0.851-0.115c0.773-0.11,1.544-0.225,2.315-0.345
	l1.03-0.167l1.346-0.221l1.101-0.194l1.289-0.231l1.14-0.216l1.219-0.237l1.172-0.238l1.232-0.258l1.135-0.246l1.229-0.275
	l1.171-0.269l1.182-0.282l1.206-0.293l1.188-0.301l1.156-0.296l1.273-0.341l1.115-0.299c0.741-0.204,1.482-0.413,2.222-0.627
	l1.243-0.365l1.135-0.336l1.243-0.383l1.13-0.351l1.25-0.4l1.079-0.349l1.301-0.433l1.042-0.352l1.302-0.45l1.042-0.367l1.326-0.475
	l0.998-0.365l1.314-0.487l1.073-0.407l1.279-0.489l0.919-0.362c1.847-0.726,3.692-1.479,5.535-2.258l0.39-0.164
	c0.526-0.223,1.052-0.452,1.578-0.68l0.736-0.319c0.507-0.222,1.014-0.448,1.521-0.674l0.79-0.353
	c0.499-0.225,0.998-0.453,1.497-0.681l0.818-0.376l1.46-0.682l0.863-0.407l1.438-0.689l0.828-0.402
	c0.507-0.247,1.014-0.495,1.522-0.746l0.662-0.331c0.551-0.275,1.103-0.551,1.654-0.83l0.432-0.221
	c1.409-0.718,2.816-1.451,4.22-2.197c1.405-0.747,2.809-1.509,4.211-2.284l0.002-0.002c0.658-0.364,1.314-0.732,1.972-1.103
	l0.286-0.16c0.629-0.355,1.257-0.715,1.885-1.076l0.358-0.206c0.606-0.349,1.212-0.702,1.817-1.057l0.445-0.261
	c0.612-0.36,1.224-0.722,1.835-1.088l0.32-0.191c0.639-0.384,1.279-0.769,1.918-1.158l0.236-0.144
	c0.811-0.495,1.621-0.996,2.431-1.5l0.665-0.415c0.669-0.419,1.338-0.84,2.006-1.265l0.446-0.283
	c0.831-0.53,1.661-1.065,2.491-1.605l0.322-0.211c0.717-0.468,1.433-0.938,2.149-1.412l0.562-0.374
	c1.654-1.1,3.305-2.219,4.953-3.356l0.429-0.297c0.777-0.538,1.555-1.08,2.331-1.626l0.144-0.101
	c0.876-0.616,1.75-1.237,2.624-1.864l0.038-0.027c0.831-0.596,1.66-1.197,2.49-1.801l0.28-0.205
	c1.723-1.259,3.442-2.535,5.157-3.831l0.098-0.075c2.628-1.986,5.246-4.014,7.855-6.084l0.049-0.038
	C1142.888,2145.022,1184.197,2098.545,1220.774,2049.971z"/>
<path style="fill:#E84A1C;" d="M1194.873,469.939h21.272c-1.584-14.008-3.213-27.554-5.144-40.916
	C1205.027,442.412,1199.646,456.067,1194.873,469.939z"/>
<path style="fill:#F3A40F;" d="M1120.843,1780.892c2.406,2.231,4.794,4.47,7.168,6.712l0.366-0.115v-39.867
	c-5.214,8.68-10.248,17.463-15.097,26.347C1115.821,1776.263,1118.342,1778.573,1120.843,1780.892z"/>
<ellipse transform="matrix(0.9742 -0.2258 0.2258 0.9742 -40.6393 202.8841)" style="fill:#EC623A;" cx="866.588" cy="279.097" rx="181.653" ry="125.985"/>
<path style="fill:#EC623A;" d="M697.07,388.671c-8.645-37.296-43.613-61.048-78.103-53.054
	c-34.49,7.994-55.443,44.709-46.798,82.004c6.097,26.307,25.292,45.875,48.178,52.317h32.772
	C685.904,460.633,705.474,424.929,697.07,388.671z"/>
<path style="fill:#EC623A;" d="M763.263,410.872c-38.55,2.138-69.119,27.753-72.702,59.066h152.728
	C840.899,434.934,805.245,408.544,763.263,410.872z"/>
<ellipse transform="matrix(0.9754 -0.2203 0.2203 0.9754 -271.0849 315.2602)" style="fill:#DC2515;" cx="1278.163" cy="1373.243" rx="78.875" ry="78.874"/>
<ellipse transform="matrix(0.7071 -0.7071 0.7071 0.7071 -786.4529 847.8199)" style="fill:#DC2515;" cx="630.183" cy="1373.243" rx="78.874" ry="78.874"/>
<path style="fill:#49221C;" d="M950.779,1333.994c37.292-0.034,64.315,23.97,79.774,45.155l0.083-0.107
	c18.927-19.012,33.288-47.449,19.424-73.295c-10.416-19.419-32.718-26.733-52.888-18.338c-8.414,3.501-15.556,9.472-23.66,13.639
	c-5.913,3.042-12.717,5.871-19.31,5.871v-0.001l-0.028,0l-0.028,0v0.001c-6.584,0-13.395-2.828-19.31-5.871
	c-8.104-4.167-15.247-10.138-23.66-13.639c-20.171-8.394-42.473-1.081-52.889,18.338c-13.838,25.799,0.445,54.178,19.322,73.19
	C897.53,1355.311,923.532,1334.02,950.779,1333.994z"/>
<path style="fill:#49221C;" d="M803.525,1244.705c0.279,2.08,0.409,3.818,0.409,5.427c0,4.739-0.842,9.256-2.499,13.431
	c-3.393,8.541,0.78,18.214,9.321,21.604c8.538,3.396,18.211-0.78,21.604-9.321c3.217-8.102,4.85-16.751,4.85-25.714
	c0-3.385-0.282-6.964-0.859-10.94l-0.271-1.425c-6.202-26.333-27.185-54.072-56.111-61.828c-5.127-1.375-10.503-2.122-16.091-2.122
	c-39.546,0-74.235,37.846-74.235,80.994c0,7.42,1.159,14.173,3.544,20.645c2.478,6.727,8.842,10.891,15.614,10.891
	c1.909,0,3.853-0.331,5.752-1.034c8.622-3.174,13.033-12.738,9.857-21.36c-1.018-2.762-1.492-5.671-1.492-9.142
	c0-22.07,17.891-47.719,40.96-47.719c5.597,0,11.065,1.831,16.091,4.895C791.275,1218.884,800.332,1232.039,803.525,1244.705z"/>
<path style="fill:#49221C;" d="M1071.137,1254.811c0,7.414,1.156,14.168,3.539,20.64c2.475,6.726,8.842,10.896,15.616,10.896
	c1.907,0,3.848-0.331,5.741-1.029c8.625-3.173,13.044-12.733,9.87-21.36c-1.018-2.767-1.492-5.671-1.492-9.147
	c0-16.228,9.674-34.391,23.965-42.869c5.144-3.052,10.887-4.85,16.992-4.85c18.192,0,35.032,19.313,39.647,37.607
	c0.282,2.101,0.411,3.84,0.411,5.432c0,4.739-0.842,9.256-2.499,13.431c-3.393,8.541,0.78,18.214,9.32,21.604
	c8.533,3.396,18.214-0.78,21.604-9.321c3.217-8.102,4.85-16.751,4.85-25.714c0-3.406-0.271-6.878-0.856-10.924l-0.273-1.441
	c-7.301-31-35.086-63.95-72.204-63.95c-5.8,0-11.495,0.815-16.992,2.341C1096.397,1185.034,1071.137,1217.992,1071.137,1254.811z"/>
<path style="fill:#49221C;" d="M1373.64,588.956V469.939h-146.332c0.62,5.5,1.235,11.07,1.859,16.728l0.59,5.351
	c0.335,3.044-1.86,5.784-4.904,6.123l-0.617,0.033c-2.789,0-5.191-2.098-5.505-4.936l-0.59-5.354
	c-0.67-6.077-1.328-12.051-1.994-17.944h-21.272c-1.109,3.224-2.188,6.458-3.231,9.704c-0.755,2.353-2.935,3.853-5.28,3.853
	c-0.561,0-1.132-0.086-1.695-0.268c-2.916-0.937-4.522-4.06-3.586-6.975c0.678-2.11,1.372-4.214,2.078-6.314H534.706v119.018
	H1373.64z"/>
<path style="fill:#FBBD53;" d="M665.708,853.581c-2.215,0-4.306-1.335-5.164-3.52c-1.121-2.852,0.282-6.069,3.133-7.19
	c14.25-5.601,29.108-10.29,44.065-14.543l-0.205-0.337c-18.77-30.02-60.301-37.902-92.763-17.605
	c-32.461,20.297-43.56,61.087-24.789,91.107c18.77,30.02,60.301,37.902,92.763,17.605c28.827-18.025,40.805-52.211,29.978-80.664
	c-15.422,4.337-30.385,9.019-44.994,14.761C667.067,853.457,666.383,853.581,665.708,853.581z"/>
<path style="fill:#FBBD53;" d="M650.136,1096.359c32.794-13.343,46.447-55.943,30.495-95.147
	c-15.953-39.205-55.469-60.169-88.263-46.826c-32.795,13.344-46.448,55.943-30.495,95.148
	C577.825,1088.739,617.342,1109.703,650.136,1096.359z"/>
<path style="fill:#5C2E27;" d="M863.051,2080.271c13.697,9.894,32.217,7.646,41.367-5.021c9.15-12.667,5.463-30.956-8.233-40.849
	c-13.696-9.894-32.217-7.645-41.367,5.021C845.669,2052.089,849.355,2070.378,863.051,2080.271z"/>
<path style="fill:#5C2E27;" d="M897.114,2103.436c-23.846-17.225-56.091-13.312-72.022,8.741
	c-15.93,22.053-9.512,53.895,14.334,71.12c23.847,17.225,56.091,13.312,72.022-8.742
	C927.378,2152.503,920.96,2120.662,897.114,2103.436z"/>
<path style="fill:#5C2E27;" d="M822.244,2052.855c-10.91-11.187-30.595-9.682-43.968,3.36c-13.373,13.042-15.37,32.684-4.461,43.87
	c10.909,11.187,30.595,9.682,43.968-3.36C831.156,2083.683,833.153,2064.042,822.244,2052.855z"/>
<path style="fill:#FBBD53;" d="M1257.937,1597.482c-32.794,13.344-46.448,55.943-30.495,95.147
	c15.953,39.205,55.469,60.169,88.263,46.826c32.795-13.344,46.447-55.943,30.495-95.148
	C1330.249,1605.102,1290.731,1584.138,1257.937,1597.482z"/>
<path style="fill:#FFFFFF;" d="M1265.539,460.568c0.964,0.672,2.069,0.994,3.16,0.994c1.755,0,3.479-0.831,4.558-2.38
	c1.749-2.513,1.129-5.971-1.386-7.717c-17.441-12.129-32.572-23.888-47.19-36.365c14.06-3.904,28.193-8.324,41.879-14.173
	c2.816-1.202,4.125-4.463,2.919-7.279c-1.203-2.813-4.463-4.127-7.279-2.919c-12.693,5.423-25.953,9.614-39.217,13.328
	c6.49-12.613,13.518-24.952,21.066-36.974c1.63-2.594,0.847-6.017-1.747-7.644c-2.586-1.63-6.014-0.85-7.644,1.746
	c-6.549,10.429-12.713,21.092-18.484,31.961c-3.037-15.315-6.764-30.73-11.571-46.678c-0.886-2.933-3.981-4.582-6.911-3.71
	c-2.933,0.885-4.593,3.977-3.71,6.911c5.016,16.64,8.838,32.74,11.925,48.797c-10.127-9.284-20.381-19.146-31.371-29.958
	c-2.183-2.142-5.689-2.12-7.842,0.065c-2.147,2.183-2.12,5.695,0.065,7.842c12.303,12.104,23.699,23.036,35.029,33.306
	c-17.665,4.609-35.924,9.38-52.958,16.075c-2.851,1.121-4.254,4.338-3.133,7.19c0.859,2.185,2.949,3.521,5.164,3.521
	c0.674,0,1.359-0.125,2.026-0.388c15.775-6.2,32.211-10.575,49.559-15.104c-7.264,15.958-13.704,32.292-19.287,48.925
	c-0.705,2.1-1.4,4.204-2.078,6.314c-0.937,2.916,0.669,6.038,3.586,6.975c0.563,0.181,1.135,0.268,1.695,0.268
	c2.345,0,4.525-1.5,5.28-3.853c1.043-3.247,2.122-6.48,3.231-9.704c4.773-13.872,10.154-27.526,16.128-40.916
	c1.931,13.362,3.56,26.908,5.144,40.916c0.666,5.893,1.324,11.867,1.994,17.944l0.59,5.354c0.314,2.838,2.716,4.936,5.505,4.936
	l0.617-0.033c3.044-0.338,5.24-3.078,4.904-6.123l-0.59-5.351c-0.624-5.658-1.238-11.229-1.859-16.728
	c-1.644-14.594-3.329-28.69-5.34-42.605C1235.459,438.632,1249.535,449.44,1265.539,460.568z"/>
<path style="fill:#FFFFFF;" d="M1126.59,1729.33c-7.634,12.157-14.91,24.533-21.826,37.103c-2.98,5.415-5.891,10.866-8.735,16.354
	c-1.792-9.479-3.754-18.971-5.927-28.522c-3.53-15.516-7.619-31.19-12.453-47.225c-0.886-2.935-3.984-4.598-6.911-3.705
	c-2.933,0.883-4.593,3.975-3.71,6.911c3.425,11.36,6.47,22.547,9.207,33.634c3.826,15.496,7.046,30.797,9.843,46.101
	c-16.814-15.209-33.716-31.413-52-49.401c-2.18-2.145-5.689-2.118-7.842,0.065c-2.147,2.182-2.12,5.692,0.065,7.842
	c19.379,19.067,37.225,36.151,55.056,52.178c-1.487,0.388-2.972,0.776-4.453,1.162c-25.988,6.781-52.862,13.794-77.858,23.618
	c-2.851,1.121-4.254,4.338-3.133,7.193c0.859,2.182,2.949,3.515,5.164,3.515c0.674,0,1.359-0.125,2.026-0.385
	c24.379-9.58,49.747-16.199,76.602-23.206c0.651-0.17,1.303-0.341,1.955-0.511c-12.962,27.928-24.203,56.657-33.628,86
	c-0.937,2.914,0.669,6.039,3.585,6.975c0.563,0.179,1.135,0.266,1.695,0.266c2.345,0,4.525-1.5,5.28-3.851
	c9.073-28.248,19.857-55.918,32.26-82.839c4.686,30.785,8.136,62.077,11.817,95.469l0.869,7.88c0.314,2.838,2.716,4.939,5.505,4.939
	l0.617-0.033c3.043-0.336,5.24-3.076,4.904-6.12l-0.869-7.88c-3.622-32.851-7.022-63.685-11.588-94.036
	c21.414,18.209,43.632,35.431,69.196,53.206c0.964,0.672,2.069,0.991,3.16,0.991c1.755,0,3.482-0.829,4.557-2.377
	c1.749-2.518,1.129-5.973-1.386-7.723c-27.228-18.933-50.64-37.252-73.373-56.862c10.96-2.989,21.963-6.163,32.891-9.721
	c11.165-3.635,22.252-7.67,33.133-12.321c2.816-1.208,4.124-4.463,2.919-7.279c-1.202-2.816-4.46-4.132-7.279-2.924
	c-12.252,5.236-24.844,9.69-37.551,13.678l-0.366,0.115l-0.024,0.007c-8.576,2.685-17.204,5.159-25.816,7.515
	c3.587-7.112,7.292-14.165,11.108-21.157c4.849-8.884,9.884-17.667,15.097-26.347c2.495-4.153,5.027-8.285,7.604-12.389
	c1.63-2.594,0.848-6.017-1.746-7.647c-1.845-1.158-4.115-1.094-5.858-0.024C1127.675,1727.993,1127.058,1728.587,1126.59,1729.33z"
	/>
<path style="fill:#FFFFFF;" d="M839.757,890.588c1.755,0,3.479-0.829,4.557-2.38c1.75-2.513,1.13-5.971-1.386-7.718
	c-23.092-16.06-43.445-31.674-62.959-47.996c-3.6-3.011-7.173-6.048-10.728-9.115c3.573-0.975,7.151-1.969,10.728-2.989
	c18.708-5.335,37.43-11.389,55.583-19.148c2.816-1.202,4.124-4.463,2.919-7.279c-1.202-2.816-4.46-4.124-7.279-2.919
	c-16.636,7.109-33.894,12.784-51.223,17.803c-4.272,1.237-8.549,2.436-12.823,3.605c4.122-8.174,8.399-16.271,12.823-24.288
	c6.706-12.154,13.753-24.123,21.138-35.885c1.63-2.594,0.848-6.017-1.746-7.644c-2.592-1.63-6.012-0.85-7.645,1.746
	c-4.015,6.393-7.929,12.848-11.747,19.357c-6.62,11.286-12.94,22.745-18.957,34.358c-4.723-24.991-10.616-50.068-18.461-76.093
	c-0.883-2.935-3.975-4.585-6.911-3.71c-2.933,0.886-4.593,3.978-3.71,6.911c8.249,27.366,14.317,53.733,19.135,80.109
	c-16.896-15.281-33.877-31.562-52.245-49.634c-2.183-2.142-5.692-2.123-7.842,0.065c-2.147,2.182-2.12,5.695,0.065,7.842
	c19.461,19.148,37.383,36.305,55.295,52.402c-1.507,0.394-3.014,0.788-4.516,1.179c-11.269,2.94-22.704,5.924-34.08,9.159
	c-14.958,4.254-29.815,8.943-44.065,14.543c-2.852,1.121-4.254,4.338-3.133,7.19c0.859,2.185,2.949,3.52,5.164,3.52
	c0.674,0,1.359-0.124,2.025-0.387c14.609-5.742,29.572-10.423,44.994-14.761c10.411-2.928,21.031-5.698,31.895-8.533
	c0.67-0.175,1.342-0.35,2.014-0.525c-13.02,28.048-24.309,56.899-33.772,86.363c-0.937,2.917,0.669,6.039,3.585,6.976
	c0.563,0.182,1.135,0.268,1.695,0.268c2.345,0,4.525-1.5,5.281-3.853c9.114-28.376,19.949-56.172,32.412-83.218
	c4.714,30.951,8.182,62.411,11.884,95.985l0.861,7.828c0.314,2.838,2.716,4.937,5.505,4.937l0.617-0.033
	c3.044-0.338,5.24-3.079,4.904-6.122l-0.864-7.823c-3.64-33.026-7.058-64.022-11.65-94.534c4.253,3.616,8.537,7.194,12.874,10.745
	c17.588,14.404,36.024,28.37,56.628,42.698C837.561,890.266,838.665,890.588,839.757,890.588z"/>
</svg>
